<svg width="142" height="42" viewBox="0 0 142 42" fill="none" xmlns="http://www.w3.org/2000/svg">
<g clip-path="url(#clip0_1156_13785)">
<path d="M24.8684 0H17.1316C7.67009 0 0 7.67009 0 17.1316V24.8684C0 34.3299 7.67009 42 17.1316 42H24.8684C34.3299 42 42 34.3299 42 24.8684V17.1316C42 7.67009 34.3299 0 24.8684 0Z" fill="#0E0E52"/>
<path fill-rule="evenodd" clip-rule="evenodd" d="M13.125 9.1875H24.9561H28.875V17.3718H24.9561V12.1642H13.125V9.1875ZM28.875 24.5863H24.9561V29.8312H13.125V32.8079H24.9561V32.8126H28.875V24.5863ZM23.1924 19.5183V22.5111H16.2955V19.5183H23.1924Z" fill="#FFD8E0"/>
</g>
<path d="M60.7941 12.4983H54V9.44727H71.2671V12.4983H64.4431V32.5958H60.7941V12.4983Z" fill="#0E0E52"/>
<path d="M125.523 29.6015L127.662 27.0843C129.329 28.7515 131.593 29.8208 133.827 29.8208C136.626 29.8208 138.199 28.4995 138.199 26.5518C138.199 24.4446 136.626 23.784 134.487 22.8401L131.278 21.4562C129.046 20.5123 126.561 18.7511 126.561 15.3854C126.561 11.7364 129.769 9 134.173 9C135.477 9.00259 136.767 9.26233 137.971 9.76437C139.174 10.2664 140.267 11.0009 141.186 11.9257L139.268 14.2535C137.822 12.9637 136.217 12.1777 134.173 12.1777C131.814 12.1777 130.272 13.3096 130.272 15.1648C130.272 17.1466 132.128 17.9012 134.015 18.6571L137.192 20.0097C139.929 21.1729 141.911 22.8701 141.911 26.2685C141.911 29.9801 138.828 32.9998 133.764 32.9998C132.234 33.0076 130.717 32.7112 129.303 32.1278C127.888 31.5444 126.603 30.6857 125.523 29.6015Z" fill="#0E0E52"/>
<path d="M92.0284 32.5376L86.0352 23.1979H81.7705V32.5376H77.6094V9.39453H86.2531C91.7015 9.39453 95.7959 11.093 95.7959 16.0919C95.7959 19.6769 93.607 21.8126 90.2713 22.7266L96.7275 32.5336L92.0284 32.5376ZM81.7705 20.2789H85.7519C89.5902 20.2789 91.6701 18.895 91.6701 16.096C91.6701 13.2969 89.5902 12.323 85.7519 12.323H81.7705V20.2789Z" fill="#0E0E52"/>
<path fill-rule="evenodd" clip-rule="evenodd" d="M118.844 9.45312V17.488H115.173V12.3762H104.094V9.45312H118.844ZM118.844 24.5565V32.6323H104.094V29.7092H115.173V24.5565H118.844ZM113.541 19.5882V22.5249H107.083V19.5882H113.541Z" fill="#0E0E52"/>
<defs>
<clipPath id="clip0_1156_13785">
<rect width="42" height="42" fill="white"/>
</clipPath>
</defs>
</svg>
